<svg width="55" height="54" viewBox="0 0 55 54" fill="none" xmlns="http://www.w3.org/2000/svg">
<g id="Group">
<path id="Vector" d="M22.4263 48.9263C12.443 46.6245 5 37.6808 5 27C5 14.5733 15.0733 4.5 27.5 4.5C39.9268 4.5 50 14.5733 50 27C50 37.6808 42.557 46.6245 32.5737 48.9263L27.5 54L22.4263 48.9263ZM16.277 41.0783C18.3735 42.7549 20.8205 43.9384 23.4365 44.541L24.6965 44.8312L27.5 47.637L30.3057 44.8312L31.5658 44.5387C34.3526 43.8963 36.945 42.5955 39.1257 40.7452C37.6606 39.2413 35.9086 38.0464 33.9736 37.2313C32.0385 36.4163 29.9597 35.9976 27.86 36C23.279 36 19.1525 37.9575 16.277 41.0783ZM13.136 37.845C15.027 35.8382 17.309 34.2399 19.8413 33.1486C22.3736 32.0574 25.1026 31.4963 27.86 31.5C30.5187 31.4965 33.1519 32.0183 35.6084 33.0354C38.0649 34.0524 40.2963 35.5447 42.1745 37.4265C44.1007 34.7155 45.2382 31.5239 45.4608 28.2058C45.6834 24.8877 44.9824 21.5727 43.4356 18.6288C41.8888 15.6848 39.5567 13.2269 36.6979 11.5278C33.8392 9.8286 30.5656 8.95464 27.2404 9.00282C23.9151 9.051 20.6682 10.0194 17.8599 11.8007C15.0516 13.582 12.7917 16.1064 11.3308 19.094C9.86995 22.0815 9.26531 25.4153 9.58396 28.7256C9.90261 32.0359 11.1321 35.1932 13.136 37.8472V37.845ZM27.5 29.25C25.1131 29.25 22.8239 28.3018 21.136 26.614C19.4482 24.9261 18.5 22.6369 18.5 20.25C18.5 17.8631 19.4482 15.5739 21.136 13.886C22.8239 12.1982 25.1131 11.25 27.5 11.25C29.8869 11.25 32.1761 12.1982 33.864 13.886C35.5518 15.5739 36.5 17.8631 36.5 20.25C36.5 22.6369 35.5518 24.9261 33.864 26.614C32.1761 28.3018 29.8869 29.25 27.5 29.25ZM27.5 24.75C28.6935 24.75 29.8381 24.2759 30.682 23.432C31.5259 22.5881 32 21.4435 32 20.25C32 19.0565 31.5259 17.9119 30.682 17.068C29.8381 16.2241 28.6935 15.75 27.5 15.75C26.3065 15.75 25.1619 16.2241 24.318 17.068C23.4741 17.9119 23 19.0565 23 20.25C23 21.4435 23.4741 22.5881 24.318 23.432C25.1619 24.2759 26.3065 24.75 27.5 24.75Z" fill="#F8F8F9"/>
</g>
</svg>
