<svg width="26" height="26" viewBox="0 0 26 26" fill="none" xmlns="http://www.w3.org/2000/svg">
<g id="down-arrow 2" clip-path="url(#clip0_294_467)">
<path id="XMLID_956_" d="M17.0094 25.5233L11.5971 20.111C10.9666 19.4805 10.9666 18.4584 11.5971 17.8279C12.2281 17.1974 13.2502 17.1974 13.8807 17.8279L15.5258 19.4729C16.0685 8.43104 8.65743 1.25179 1.06109 1.18517C0.786466 1.183 0.730675 0.797333 0.983091 0.71175C8.88005 -1.95433 18.7985 2.89467 20.592 15.568C20.7518 16.7955 20.8731 18.037 20.9608 19.2882L22.4217 17.8273C23.0522 17.1968 24.0749 17.1968 24.7048 17.8273C25.3359 18.4578 25.3359 19.48 24.7048 20.1105L19.2925 25.5228C18.6626 26.1538 17.6404 26.1538 17.0094 25.5233Z" fill="#88C057"/>
</g>
<defs>
<clipPath id="clip0_294_467">
<rect width="26" height="26" fill="white"/>
</clipPath>
</defs>
</svg>
