<svg width="54" height="54" viewBox="0 0 54 54" fill="none" xmlns="http://www.w3.org/2000/svg">
<g id="payment-method 1" clip-path="url(#clip0_302_602)">
<g id="Group">
<g id="Group_2">
<path id="Vector" d="M18.1986 12.6666C18.1849 12.7341 18.1649 12.8005 18.1385 12.8649C18.1121 12.9281 18.0795 12.9893 18.0415 13.0463C18.0035 13.1043 17.9592 13.1581 17.9107 13.2066C17.8622 13.2551 17.8084 13.2994 17.7504 13.3374C17.6934 13.3753 17.6323 13.408 17.5679 13.4344C17.5046 13.4608 17.4382 13.4819 17.3707 13.4945C17.2346 13.5219 17.0944 13.5219 16.9594 13.4945C16.8919 13.4819 16.8254 13.4608 16.7611 13.4344C16.6978 13.408 16.6366 13.3753 16.5797 13.3374C16.5217 13.2994 16.4679 13.2551 16.4194 13.2066C16.3709 13.1581 16.3266 13.1043 16.2886 13.0463C16.2496 12.9893 16.2179 12.9281 16.1916 12.8649C16.1652 12.8005 16.1441 12.7341 16.1314 12.6666C16.1177 12.5991 16.1104 12.5295 16.1104 12.4609C16.1104 12.3924 16.1177 12.3228 16.1314 12.2553C16.1441 12.1878 16.1652 12.1213 16.1916 12.058C16.2179 11.9937 16.2496 11.9325 16.2886 11.8756C16.3266 11.8176 16.3709 11.7638 16.4194 11.7153C16.4679 11.6667 16.5217 11.6224 16.5797 11.5845C16.6366 11.5464 16.6978 11.5137 16.7611 11.4873C16.8254 11.461 16.8919 11.4399 16.9594 11.4272C17.0269 11.4135 17.0965 11.4061 17.165 11.4061C17.2336 11.4061 17.3032 11.4135 17.3707 11.4272C17.4382 11.4399 17.5046 11.461 17.5679 11.4873C17.6323 11.5137 17.6934 11.5465 17.7504 11.5845C17.8084 11.6224 17.8622 11.6667 17.9107 11.7153C17.9592 11.7638 18.0035 11.8176 18.0415 11.8756C18.0795 11.9325 18.1121 11.9937 18.1385 12.058C18.1649 12.1213 18.1849 12.1878 18.1986 12.2553C18.2123 12.3228 18.2197 12.3924 18.2197 12.4609C18.2197 12.5295 18.2123 12.5991 18.1986 12.6666Z" fill="white"/>
</g>
</g>
<g id="Group_3">
<g id="Group_4">
<path id="Vector_2" d="M48.5149 12.3418C48.5108 12.3523 48.5066 12.3627 48.5021 12.3731C47.5314 14.6446 45.2547 15.4841 42.5604 14.5639L35.2126 12.5319C34.7878 13.8184 33.7282 14.9132 32.2299 15.4692C32.2206 15.4726 32.2113 15.476 32.2019 15.4791L24.125 18.2205C23.4528 19.0894 21.347 21.3129 17.4042 21.3129C14.6489 21.3129 12.2114 19.4227 10.8169 17.3624H1.05469C0.472184 17.3624 0 16.8902 0 16.3077V3.01051C0 2.42801 0.472184 1.95583 1.05469 1.95583H7.32554C7.90805 1.95583 8.38023 2.42801 8.38023 3.01051V3.92113H11.321C11.9035 3.92113 12.3757 4.39331 12.3757 4.97582V5.27936C14.09 5.1298 14.6538 4.80464 16.2283 3.89677C17.439 3.19856 19.269 2.14335 22.5645 0.661619C22.5798 0.654764 22.5953 0.648226 22.6108 0.642109C23.2433 0.393307 24.4797 0.0024395 26.0041 0.0024395C27.0651 0.0024395 28.2658 0.191967 29.4983 0.750635L45.7396 6.56576C45.7685 6.57609 45.797 6.5877 45.8248 6.60056C47.377 7.31469 49.69 9.32735 48.5149 12.3418ZM6.27086 4.06531H2.10938V15.2531H6.27086V4.06531ZM10.2663 6.03061H8.38023V15.2531H10.2663V6.03061ZM44.982 8.53518L28.748 2.72269C28.7338 2.71763 28.7145 2.71003 28.7005 2.70434C28.6862 2.69854 28.672 2.69242 28.658 2.68599C26.397 1.64691 24.2479 2.26896 23.4056 2.59644C20.2224 4.02881 18.5234 5.00851 17.282 5.72433C15.5561 6.71953 14.7245 7.1992 12.3757 7.39316V15.8878C13.3754 17.5264 15.3142 19.2037 17.4043 19.2037C20.9888 19.2037 22.5077 16.8723 22.5674 16.7782C22.6961 16.5687 22.8941 16.4108 23.1269 16.3318L31.509 13.4869C32.8477 12.9845 33.5552 11.838 33.23 10.6948C33.08 10.1668 32.7332 9.72887 32.2537 9.46172C31.7784 9.19689 31.2289 9.13139 30.7051 9.27631L21.2559 12.2708C20.7002 12.4468 20.1077 12.1393 19.9318 11.584C19.7558 11.0287 20.0633 10.4359 20.6186 10.2599L30.0843 7.26027C30.0943 7.25711 30.1044 7.25405 30.1145 7.2512C30.4924 7.14373 30.8771 7.09057 31.2596 7.09057C31.9597 7.09057 32.6521 7.26892 33.2805 7.61907C34.2521 8.16045 34.9548 9.04786 35.2589 10.1178C35.2832 10.2033 35.3047 10.2887 35.3234 10.3741L43.2423 12.5679C44.386 12.9585 45.8873 13.0993 46.5558 11.5598C47.2477 9.75239 45.4494 8.75814 44.982 8.53518Z" fill="white"/>
</g>
</g>
<g id="Group_5">
<g id="Group_6">
<path id="Vector_3" d="M37.8696 40.1263C37.8559 40.1938 37.8359 40.2603 37.8084 40.3246C37.7821 40.3879 37.7504 40.4491 37.7114 40.506C37.6734 40.564 37.6291 40.6178 37.5806 40.6663C37.5321 40.7148 37.4783 40.7591 37.4203 40.7971C37.3634 40.8351 37.3022 40.8678 37.2389 40.8941C37.1746 40.9205 37.1081 40.9416 37.0417 40.9543C36.9056 40.9817 36.7654 40.9817 36.6293 40.9543C36.5618 40.9416 36.4954 40.9205 36.4321 40.8941C36.3677 40.8678 36.3066 40.8351 36.2496 40.7971C36.1916 40.7591 36.1378 40.7148 36.0893 40.6663C36.0408 40.6178 35.9965 40.564 35.9585 40.506C35.9205 40.4491 35.8879 40.3879 35.8615 40.3246C35.8351 40.2603 35.814 40.1938 35.8014 40.1263C35.7877 40.0588 35.7803 39.9892 35.7803 39.9207C35.7803 39.8521 35.7877 39.7825 35.8014 39.715C35.814 39.6475 35.8351 39.5811 35.8615 39.5178C35.8879 39.4534 35.9205 39.3923 35.9585 39.3353C35.9965 39.2773 36.0408 39.2235 36.0893 39.175C36.1378 39.1265 36.1916 39.0822 36.2496 39.0442C36.3066 39.0062 36.3677 38.9736 36.4321 38.9472C36.4954 38.9208 36.5618 38.9008 36.6293 38.8871C36.6968 38.8734 36.7664 38.866 36.835 38.866C36.9035 38.866 36.9731 38.8734 37.0417 38.8871C37.1081 38.9008 37.1746 38.9208 37.2389 38.9472C37.3022 38.9736 37.3634 39.0062 37.4203 39.0442C37.4783 39.0822 37.5321 39.1265 37.5806 39.175C37.6291 39.2235 37.6734 39.2773 37.7114 39.3353C37.7504 39.3923 37.7821 39.4534 37.8084 39.5178C37.8359 39.5811 37.8559 39.6475 37.8696 39.715C37.8833 39.7825 37.8896 39.8521 37.8896 39.9207C37.8896 39.9892 37.8833 40.0588 37.8696 40.1263Z" fill="white"/>
</g>
</g>
<g id="Group_7">
<g id="Group_8">
<path id="Vector_4" d="M52.9452 50.4256H46.6744C46.0919 50.4256 45.6197 49.9534 45.6197 49.3709V48.4602H42.6789C42.0964 48.4602 41.6242 47.9881 41.6242 47.4056V47.102C39.9099 47.2517 39.3461 47.5767 37.7717 48.4846C36.561 49.1828 34.731 50.238 31.4354 51.7198C31.4201 51.7267 31.4047 51.7332 31.389 51.7393C30.3163 52.1614 27.5048 52.9918 24.502 51.631L20.2579 50.1114L16.6805 53.6887C16.2687 54.1005 15.6008 54.1005 15.189 53.6887L3.4442 41.944C3.0643 41.564 2.99142 40.9051 3.4442 40.4523L23.5135 20.383C23.8347 20.0617 24.5867 19.9646 25.0052 20.383L35.7277 31.1054C36.0064 31.0813 36.2957 31.0683 36.5956 31.0683C39.351 31.0683 41.7884 32.9586 43.1828 35.0188H52.9452C53.5277 35.0188 53.9999 35.491 53.9999 36.0735V49.3709C53.9999 49.9534 53.5277 50.4256 52.9452 50.4256ZM15.9347 51.4513L18.3385 49.0475C17.6239 48.6056 16.7978 48.3691 15.9347 48.3691C15.0714 48.3691 14.2454 48.6055 13.5308 49.0475L15.9347 51.4513ZM8.08545 38.7942L5.68161 41.1982L8.08545 43.602C8.52737 42.8875 8.76383 42.0614 8.76383 41.1982C8.76383 40.335 8.52747 39.5089 8.08545 38.7942ZM24.2594 22.6204L21.856 25.0238C23.3234 25.9294 25.1952 25.9294 26.6627 25.0238L24.2594 22.6204ZM28.1823 26.5432C25.8517 28.2339 22.6671 28.2339 20.3365 26.5432L9.60494 37.2749C10.4285 38.4076 10.8732 39.7683 10.8732 41.1982C10.8732 42.6282 10.4287 43.9888 9.60494 45.1215L12.0114 47.5279C13.1442 46.7043 14.5047 46.2596 15.9348 46.2596C17.3648 46.2596 18.7254 46.7043 19.8581 47.5279L22.1393 45.2467C21.647 45.1741 21.1671 45.0118 20.7194 44.7624C19.9634 44.3412 19.3703 43.7104 19.0009 42.9472C17.8113 42.7269 16.7098 42.1509 15.8458 41.287C13.5018 38.9429 13.5018 35.1288 15.846 32.7846C17.0179 31.6127 18.5574 31.0266 20.0971 31.0266C21.6366 31.0266 23.1762 31.6126 24.3483 32.7846C25.1109 33.5472 25.6451 34.4844 25.9126 35.5057L29.4737 34.2972C29.0728 32.4401 29.4834 30.4864 30.5909 28.9518L28.1823 26.5432ZM21.77 36.9122C21.7793 36.9088 21.7886 36.9054 21.798 36.9022L23.9069 36.1864C23.7477 35.4677 23.3873 34.8068 22.8568 34.2762C21.3351 32.7547 18.8591 32.7545 17.3376 34.2762C15.8159 35.7978 15.8159 38.2737 17.3376 39.7954C17.7046 40.1626 18.1378 40.4496 18.6098 40.6442C18.8045 39.024 19.971 37.5798 21.77 36.9122ZM32.1106 30.4716C31.7035 31.135 31.4731 31.8922 31.4368 32.6649C31.942 32.2997 32.5594 31.9418 33.2968 31.6578L32.1106 30.4716ZM41.6241 36.494C40.6245 34.8552 38.6857 33.1779 36.5956 33.1779C36.2045 33.1779 35.838 33.2058 35.4953 33.2553C35.4939 33.2556 35.4926 33.2558 35.4912 33.256C33.2135 33.5868 31.9883 34.8814 31.5844 35.3939C31.5629 35.4256 31.4713 35.5455 31.4576 35.5654C31.3348 35.785 31.1333 35.9616 30.8764 36.0488L22.4908 38.8949C21.1526 39.3971 20.4452 40.543 20.7694 41.6859C20.7697 41.6866 20.7699 41.6874 20.7701 41.6881C20.7704 41.6889 20.7706 41.6899 20.7708 41.6907C20.9215 42.217 21.2677 42.6536 21.7461 42.9201C22.2213 43.1849 22.7707 43.2506 23.2947 43.1054L32.7439 40.111C33.2993 39.9348 33.8921 40.2425 34.068 40.7978C34.2439 41.3531 33.9365 41.9459 33.3812 42.1219L25.866 44.5034L25.8004 44.569C25.7998 44.5696 25.7991 44.5704 25.7984 44.571L21.9077 48.4617L25.2519 49.6592C25.2631 49.6633 25.2771 49.6685 25.2882 49.673C25.2911 49.6742 25.2966 49.6763 25.2993 49.6775C25.3137 49.6833 25.3278 49.6894 25.3418 49.6958C27.6027 50.7349 29.7517 50.1129 30.5941 49.7854C33.7774 48.353 35.4765 47.3733 36.7179 46.6575C38.4438 45.6622 39.2754 45.1826 41.6241 44.9886V36.494ZM45.6197 37.1284H43.7336V46.3509H45.6197V37.1284ZM51.8905 37.1284H47.729V48.3162H51.8905V37.1284Z" fill="white"/>
</g>
</g>
</g>
<defs>
<clipPath id="clip0_302_602">
<rect width="54" height="54" fill="white" transform="matrix(1 0 0 -1 0 54)"/>
</clipPath>
</defs>
</svg>
