<svg width="54" height="55" viewBox="0 0 54 55" fill="none" xmlns="http://www.w3.org/2000/svg">
<g id="credit-card 1">
<g id="Layer 2">
<path id="Vector" d="M50.5018 11.1766L40.8589 7.31942C40.6287 7.22715 40.3717 7.22715 40.1415 7.31942L30.4986 11.1766C30.3199 11.2482 30.1667 11.3717 30.0587 11.5312C29.9508 11.6907 29.8931 11.8788 29.8931 12.0714V22.0383C29.8981 23.8696 30.3746 25.6688 31.2769 27.2625C32.1791 28.8562 33.4766 30.1906 35.0443 31.1373L40.0046 34.1131C40.1543 34.2028 40.3256 34.2502 40.5002 34.2502C40.6748 34.2502 40.8461 34.2028 40.9959 34.1131L45.3216 31.5172V42.3172C45.3211 42.7365 45.1544 43.1384 44.8579 43.4349C44.5614 43.7313 44.1595 43.8981 43.7402 43.8986H6.40307C5.9838 43.8981 5.58186 43.7313 5.28539 43.4349C4.98893 43.1384 4.82215 42.7365 4.82164 42.3172V20.75H27.0002C27.256 20.75 27.5012 20.6484 27.6821 20.4676C27.8629 20.2867 27.9645 20.0414 27.9645 19.7857C27.9645 19.53 27.8629 19.2847 27.6821 19.1039C27.5012 18.923 27.256 18.8214 27.0002 18.8214H4.82164V16.5457C4.82215 16.1264 4.98893 15.7245 5.28539 15.428C5.58186 15.1316 5.9838 14.9648 6.40307 14.9643H27.0002C27.256 14.9643 27.5012 14.8627 27.6821 14.6818C27.8629 14.501 27.9645 14.2557 27.9645 14C27.9645 13.7442 27.8629 13.499 27.6821 13.3181C27.5012 13.1373 27.256 13.0357 27.0002 13.0357H6.40307C5.47231 13.0362 4.57983 13.4062 3.92169 14.0643C3.26354 14.7225 2.89358 15.615 2.89307 16.5457V42.3114C2.89358 43.2422 3.26354 44.1347 3.92169 44.7928C4.57983 45.4509 5.47231 45.8209 6.40307 45.8214H43.7402C44.671 45.8209 45.5634 45.4509 46.2216 44.7928C46.8797 44.1347 47.2497 43.2422 47.2502 42.3114V30.2C48.4514 29.204 49.4194 27.9566 50.0859 26.5457C50.7524 25.1348 51.1011 23.5948 51.1074 22.0344V12.0714C51.1073 11.8788 51.0496 11.6907 50.9417 11.5312C50.8337 11.3717 50.6805 11.2482 50.5018 11.1766ZM49.1788 22.0383C49.1748 23.5368 48.7848 25.009 48.0464 26.3129C47.308 27.6168 46.246 28.7085 44.9629 29.4826L40.5002 32.1614L36.0375 29.4826C34.7544 28.7085 33.6925 27.6168 32.954 26.3129C32.2156 25.009 31.8256 23.5368 31.8216 22.0383V12.7233L40.5002 9.25185L49.1788 12.7233V22.0383Z" fill="white"/>
<path id="Vector_2" d="M37.3258 19.2688C37.2362 19.1792 37.1299 19.108 37.0129 19.0595C36.8959 19.0109 36.7704 18.9859 36.6437 18.9858C36.517 18.9857 36.3915 19.0105 36.2745 19.059C36.1574 19.1074 36.051 19.1783 35.9613 19.2679C35.8716 19.3574 35.8005 19.4637 35.7519 19.5807C35.7034 19.6978 35.6783 19.8232 35.6782 19.9499C35.6781 20.0766 35.703 20.2021 35.7514 20.3192C35.7998 20.4363 35.8708 20.5427 35.9603 20.6323L38.533 23.2031C38.7139 23.3839 38.9591 23.4855 39.2148 23.4855C39.4705 23.4855 39.7157 23.3839 39.8965 23.2031L45.04 18.0596C45.2209 17.8786 45.3223 17.6331 45.3222 17.3772C45.322 17.1213 45.2201 16.876 45.0391 16.6952C44.858 16.5144 44.6125 16.4129 44.3567 16.4131C44.1008 16.4132 43.8554 16.5151 43.6746 16.6961L39.2138 21.1588L37.3258 19.2688Z" fill="white"/>
<path id="Vector_3" d="M9.643 38.1071C9.38725 38.1071 9.14198 38.2087 8.96114 38.3896C8.78031 38.5704 8.67871 38.8157 8.67871 39.0714C8.67871 39.3272 8.78031 39.5724 8.96114 39.7533C9.14198 39.9341 9.38725 40.0357 9.643 40.0357H17.3573C17.613 40.0357 17.8583 39.9341 18.0391 39.7533C18.22 39.5724 18.3216 39.3272 18.3216 39.0714C18.3216 38.8157 18.22 38.5704 18.0391 38.3896C17.8583 38.2087 17.613 38.1071 17.3573 38.1071H9.643Z" fill="white"/>
</g>
</g>
</svg>
