<svg width="26" height="26" viewBox="0 0 26 26" fill="none" xmlns="http://www.w3.org/2000/svg">
<g id="upward-arrow 2" clip-path="url(#clip0_294_483)">
<path id="XMLID_955_" d="M8.9908 0.476666L14.4031 5.889C15.0336 6.5195 15.0336 7.54162 14.4031 8.17212C13.7721 8.80262 12.75 8.80262 12.1195 8.17212L10.4744 6.52708C9.93168 17.5695 17.3428 24.7487 24.9391 24.8154C25.2137 24.8175 25.2695 25.2032 25.0171 25.2888C17.1201 27.9549 7.20168 23.1059 5.40822 10.4325C5.24843 9.20508 5.12709 7.96358 5.03934 6.71233L3.57847 8.17321C2.94797 8.80371 1.9253 8.80371 1.29534 8.17321C0.664844 7.54271 0.664302 6.52058 1.29534 5.89008L6.70768 0.47775C7.33764 -0.153834 8.35976 -0.153834 8.9908 0.476666Z" fill="#ED7161"/>
</g>
<defs>
<clipPath id="clip0_294_483">
<rect width="26" height="26" fill="white"/>
</clipPath>
</defs>
</svg>
